REM MD5 4513bc4d6a5c90612fe681d5f7c12d28
FILE "Pilot ni Narou! (Japan).bin" BINARY
  TRACK 01 MODE2/2352
    INDEX 01 00:00:00
  TRACK 02 AUDIO
    INDEX 00 06:29:03
    INDEX 01 06:31:03
  TRACK 03 AUDIO
    INDEX 00 07:03:18
    INDEX 01 07:05:18
  TRACK 04 AUDIO
    INDEX 00 10:41:47
    INDEX 01 10:43:47
REM LEADOUT 14:12:46
